<svg width="48" height="48" viewBox="0 0 48 48" fill="none" xmlns="http://www.w3.org/2000/svg">
<path d="M0 24C0 10.7452 10.7452 0 24 0C37.2548 0 48 10.7452 48 24C48 37.2548 37.2548 48 24 48C10.7452 48 0 37.2548 0 24Z" fill="#FAF6F6"/>
<path d="M27.4768 24.89L28.9918 33.416C29.0087 33.5164 28.9946 33.6196 28.9514 33.7118C28.9081 33.8039 28.8377 33.8807 28.7497 33.9318C28.6616 33.9829 28.56 34.0059 28.4586 33.9977C28.3571 33.9895 28.2605 33.9506 28.1818 33.886L24.6018 31.199C24.4289 31.0699 24.219 31.0001 24.0033 31.0001C23.7875 31.0001 23.5776 31.0699 23.4048 31.199L19.8188 33.885C19.7401 33.9494 19.6436 33.9884 19.5422 33.9966C19.4409 34.0048 19.3394 33.9818 19.2514 33.9309C19.1634 33.8799 19.093 33.8033 19.0497 33.7113C19.0063 33.6194 18.992 33.5163 19.0088 33.416L20.5228 24.89" stroke="#D18A8A" stroke-width="2" stroke-linecap="round" stroke-linejoin="round"/>
<path d="M24 26C27.3137 26 30 23.3137 30 20C30 16.6863 27.3137 14 24 14C20.6863 14 18 16.6863 18 20C18 23.3137 20.6863 26 24 26Z" stroke="#D18A8A" stroke-width="2" stroke-linecap="round" stroke-linejoin="round"/>
</svg>
