<svg width="48" height="48" viewBox="0 0 48 48" fill="none" xmlns="http://www.w3.org/2000/svg">
<path d="M0 24C0 10.7452 10.7452 0 24 0C37.2548 0 48 10.7452 48 24C48 37.2548 37.2548 48 24 48C10.7452 48 0 37.2548 0 24Z" fill="#FAF6F6"/>
<path d="M14 21.5C14 20.3872 14.3376 19.3006 14.9681 18.3836C15.5987 17.4667 16.4925 16.7626 17.5316 16.3644C18.5707 15.9661 19.7062 15.8924 20.788 16.153C21.8699 16.4136 22.8472 16.9963 23.591 17.824C23.6434 17.88 23.7067 17.9246 23.7771 17.9552C23.8474 17.9857 23.9233 18.0015 24 18.0015C24.0767 18.0015 24.1526 17.9857 24.2229 17.9552C24.2933 17.9246 24.3566 17.88 24.409 17.824C25.1504 16.9909 26.128 16.4033 27.2116 16.1396C28.2952 15.8758 29.4335 15.9483 30.4749 16.3475C31.5163 16.7466 32.4114 17.4534 33.0411 18.3739C33.6708 19.2943 34.0053 20.3847 34 21.5C34 23.79 32.5 25.5 31 27L25.508 32.313C25.3217 32.527 25.0919 32.6989 24.834 32.8173C24.5762 32.9357 24.296 32.9978 24.0123 32.9996C23.7285 33.0014 23.4476 32.9428 23.1883 32.8277C22.9289 32.7126 22.697 32.5436 22.508 32.332L17 27C15.5 25.5 14 23.8 14 21.5Z" stroke="#D18A8A" stroke-width="2" stroke-linecap="round" stroke-linejoin="round"/>
</svg>
