<svg width="48" height="48" viewBox="0 0 48 48" fill="none" xmlns="http://www.w3.org/2000/svg">
<path d="M0 24C0 10.7452 10.7452 0 24 0C37.2548 0 48 10.7452 48 24C48 37.2548 37.2548 48 24 48C10.7452 48 0 37.2548 0 24Z" fill="#FAF6F6"/>
<g clip-path="url(#clip0_209_137)">
<path d="M23.0174 14.814C23.0603 14.5846 23.182 14.3774 23.3615 14.2283C23.5411 14.0792 23.7671 13.9976 24.0004 13.9976C24.2338 13.9976 24.4598 14.0792 24.6393 14.2283C24.8189 14.3774 24.9406 14.5846 24.9834 14.814L26.0344 20.372C26.1091 20.7672 26.3011 21.1306 26.5855 21.415C26.8698 21.6993 27.2333 21.8914 27.6284 21.966L33.1864 23.017C33.4158 23.0599 33.623 23.1816 33.7721 23.3611C33.9212 23.5406 34.0028 23.7667 34.0028 24C34.0028 24.2334 33.9212 24.4594 33.7721 24.6389C33.623 24.8184 33.4158 24.9402 33.1864 24.983L27.6284 26.034C27.2333 26.1087 26.8698 26.3007 26.5855 26.585C26.3011 26.8694 26.1091 27.2329 26.0344 27.628L24.9834 33.186C24.9406 33.4154 24.8189 33.6226 24.6393 33.7717C24.4598 33.9208 24.2338 34.0024 24.0004 34.0024C23.7671 34.0024 23.5411 33.9208 23.3615 33.7717C23.182 33.6226 23.0603 33.4154 23.0174 33.186L21.9664 27.628C21.8918 27.2329 21.6998 26.8694 21.4154 26.585C21.1311 26.3007 20.7676 26.1087 20.3724 26.034L14.8144 24.983C14.585 24.9402 14.3779 24.8184 14.2288 24.6389C14.0797 24.4594 13.998 24.2334 13.998 24C13.998 23.7667 14.0797 23.5406 14.2288 23.3611C14.3779 23.1816 14.585 23.0599 14.8144 23.017L20.3724 21.966C20.7676 21.8914 21.1311 21.6993 21.4154 21.415C21.6998 21.1306 21.8918 20.7672 21.9664 20.372L23.0174 14.814Z" stroke="#D18A8A" stroke-width="2" stroke-linecap="round" stroke-linejoin="round"/>
<path d="M32 14V18" stroke="#D18A8A" stroke-width="2" stroke-linecap="round" stroke-linejoin="round"/>
<path d="M34 16H30" stroke="#D18A8A" stroke-width="2" stroke-linecap="round" stroke-linejoin="round"/>
<path d="M16 34C17.1046 34 18 33.1046 18 32C18 30.8954 17.1046 30 16 30C14.8954 30 14 30.8954 14 32C14 33.1046 14.8954 34 16 34Z" stroke="#D18A8A" stroke-width="2" stroke-linecap="round" stroke-linejoin="round"/>
</g>
<defs>
<clipPath id="clip0_209_137">
<rect width="24" height="24" fill="white" transform="translate(12 12)"/>
</clipPath>
</defs>
</svg>
