<svg width="36" height="36" viewBox="0 0 36 36" fill="none" xmlns="http://www.w3.org/2000/svg">
<path d="M21.3333 16.3333C21.3333 17.2174 20.9821 18.0652 20.357 18.6904C19.7319 19.3155 18.884 19.6667 18 19.6667C17.1159 19.6667 16.2681 19.3155 15.6429 18.6904C15.0178 18.0652 14.6666 17.2174 14.6666 16.3333" stroke="#262626" stroke-width="1.66667" stroke-linecap="round" stroke-linejoin="round"/>
<path d="M10.5858 13.0283H25.4141" stroke="#262626" stroke-width="1.66667" stroke-linecap="round" stroke-linejoin="round"/>
<path d="M10.8333 12.5558C10.617 12.8443 10.5 13.1952 10.5 13.5558V24.6667C10.5 25.1087 10.6756 25.5326 10.9882 25.8452C11.3007 26.1577 11.7246 26.3333 12.1667 26.3333H23.8333C24.2754 26.3333 24.6993 26.1577 25.0118 25.8452C25.3244 25.5326 25.5 25.1087 25.5 24.6667V13.5558C25.5 13.1952 25.383 12.8443 25.1667 12.5558L23.5 10.3333C23.3448 10.1263 23.1434 9.95833 22.912 9.84262C22.6806 9.72691 22.4254 9.66667 22.1667 9.66667H13.8333C13.5746 9.66667 13.3194 9.72691 13.088 9.84262C12.8566 9.95833 12.6552 10.1263 12.5 10.3333L10.8333 12.5558Z" stroke="#262626" stroke-width="1.66667" stroke-linecap="round" stroke-linejoin="round"/>
</svg>
