<svg width="20" height="20" viewBox="0 0 20 20" fill="none" xmlns="http://www.w3.org/2000/svg">
<g clip-path="url(#clip0_211_478)">
<path d="M14.166 1.66669H5.83268C3.5315 1.66669 1.66602 3.53217 1.66602 5.83335V14.1667C1.66602 16.4679 3.5315 18.3334 5.83268 18.3334H14.166C16.4672 18.3334 18.3327 16.4679 18.3327 14.1667V5.83335C18.3327 3.53217 16.4672 1.66669 14.166 1.66669Z" stroke="#D18A8A" stroke-width="1.66667" stroke-linecap="round" stroke-linejoin="round"/>
<path d="M13.3337 9.47482C13.4366 10.1684 13.3181 10.8767 12.9952 11.499C12.6723 12.1213 12.1614 12.626 11.5351 12.9412C10.9088 13.2564 10.1991 13.3662 9.5069 13.2548C8.81468 13.1434 8.17521 12.8166 7.67944 12.3208C7.18367 11.825 6.85685 11.1856 6.74546 10.4933C6.63408 9.80112 6.74379 9.0914 7.05901 8.46514C7.37423 7.83887 7.8789 7.32794 8.50123 7.00503C9.12356 6.68211 9.83187 6.56365 10.5254 6.66649C11.2328 6.77139 11.8878 7.10104 12.3935 7.60675C12.8992 8.11245 13.2288 8.76739 13.3337 9.47482Z" stroke="#D18A8A" stroke-width="1.66667" stroke-linecap="round" stroke-linejoin="round"/>
<path d="M14.584 5.41669H14.5923" stroke="#D18A8A" stroke-width="1.66667" stroke-linecap="round" stroke-linejoin="round"/>
</g>
<defs>
<clipPath id="clip0_211_478">
<rect width="20" height="20" fill="white"/>
</clipPath>
</defs>
</svg>
