<svg width="40" height="40" viewBox="0 0 40 40" fill="none" xmlns="http://www.w3.org/2000/svg">
<path d="M17.4997 5L13.333 15L19.9997 36.6667L26.6663 15L22.4997 5" stroke="#D18A8A" stroke-width="3.33333" stroke-linecap="round" stroke-linejoin="round"/>
<path d="M28.3336 5C28.851 5 29.3614 5.12048 29.8243 5.35191C30.2871 5.58334 30.6897 5.91935 31.0002 6.33333L36.0002 13C36.4291 13.5719 36.6627 14.2666 36.6666 14.9814C36.6705 15.6963 36.4445 16.3934 36.0219 16.97L22.7052 35.28C22.3965 35.7091 21.9901 36.0587 21.5196 36.2998C21.0491 36.5409 20.5281 36.6667 19.9994 36.6667C19.4707 36.6667 18.9496 36.5409 18.4792 36.2998C18.0087 36.0587 17.6023 35.7091 17.2936 35.28L3.97689 16.97C3.55458 16.3932 3.32886 15.696 3.33307 14.9811C3.33727 14.2663 3.57116 13.5718 4.00023 13L8.99689 6.33833C9.3072 5.92298 9.71011 5.58573 10.1736 5.3534C10.6371 5.12107 11.1484 5.00006 11.6669 5H28.3336Z" stroke="#D18A8A" stroke-width="3.33333" stroke-linecap="round" stroke-linejoin="round"/>
<path d="M3.33301 15H36.6663" stroke="#D18A8A" stroke-width="3.33333" stroke-linecap="round" stroke-linejoin="round"/>
</svg>
