<svg width="40" height="40" viewBox="0 0 40 40" fill="none" xmlns="http://www.w3.org/2000/svg">
<path d="M19.9997 36.6667C15.5794 36.6667 11.3402 34.9108 8.21456 31.7852C5.08896 28.6595 3.33301 24.4203 3.33301 20C3.33301 15.5798 5.08896 11.3405 8.21456 8.21493C11.3402 5.08932 15.5794 3.33337 19.9997 3.33337C24.4199 3.33337 28.6592 4.91373 31.7848 7.72677C34.9104 10.5398 36.6663 14.3551 36.6663 18.3334C36.6663 20.5435 35.7884 22.6631 34.2256 24.2259C32.6628 25.7887 30.5431 26.6667 28.333 26.6667H24.583C24.0413 26.6667 23.5104 26.8175 23.0496 27.1023C22.5889 27.3871 22.2165 27.7945 21.9743 28.279C21.732 28.7635 21.6295 29.3058 21.6781 29.8453C21.7268 30.3848 21.9247 30.9 22.2497 31.3334L22.7497 32C23.0747 32.4334 23.2726 32.9486 23.3212 33.4881C23.3699 34.0276 23.2673 34.5699 23.0251 35.0544C22.7828 35.5389 22.4105 35.9463 21.9497 36.2311C21.489 36.5159 20.958 36.6667 20.4163 36.6667H19.9997Z" stroke="#D18A8A" stroke-width="3.33333" stroke-linecap="round" stroke-linejoin="round"/>
<path d="M22.5003 11.6667C22.9606 11.6667 23.3337 11.2936 23.3337 10.8333C23.3337 10.3731 22.9606 10 22.5003 10C22.0401 10 21.667 10.3731 21.667 10.8333C21.667 11.2936 22.0401 11.6667 22.5003 11.6667Z" fill="#D18A8A" stroke="#D18A8A" stroke-width="3.33333" stroke-linecap="round" stroke-linejoin="round"/>
<path d="M29.1663 18.3333C29.6266 18.3333 29.9997 17.9602 29.9997 17.5C29.9997 17.0397 29.6266 16.6666 29.1663 16.6666C28.7061 16.6666 28.333 17.0397 28.333 17.5C28.333 17.9602 28.7061 18.3333 29.1663 18.3333Z" fill="#D18A8A" stroke="#D18A8A" stroke-width="3.33333" stroke-linecap="round" stroke-linejoin="round"/>
<path d="M10.8333 21.6667C11.2936 21.6667 11.6667 21.2936 11.6667 20.8333C11.6667 20.3731 11.2936 20 10.8333 20C10.3731 20 10 20.3731 10 20.8333C10 21.2936 10.3731 21.6667 10.8333 21.6667Z" fill="#D18A8A" stroke="#D18A8A" stroke-width="3.33333" stroke-linecap="round" stroke-linejoin="round"/>
<path d="M14.1663 13.3333C14.6266 13.3333 14.9997 12.9602 14.9997 12.5C14.9997 12.0397 14.6266 11.6666 14.1663 11.6666C13.7061 11.6666 13.333 12.0397 13.333 12.5C13.333 12.9602 13.7061 13.3333 14.1663 13.3333Z" fill="#D18A8A" stroke="#D18A8A" stroke-width="3.33333" stroke-linecap="round" stroke-linejoin="round"/>
</svg>
