<svg width="40" height="40" viewBox="0 0 40 40" fill="none" xmlns="http://www.w3.org/2000/svg">
<path d="M4.9868 27.2366C5.23187 27.8548 5.28643 28.5321 5.14347 29.1816L3.36847 34.6649C3.31128 34.943 3.32606 35.231 3.41143 35.5018C3.49679 35.7726 3.64991 36.017 3.85625 36.212C4.06259 36.407 4.31532 36.5461 4.59047 36.616C4.86562 36.6859 5.15407 36.6844 5.42847 36.6116L11.1168 34.9482C11.7297 34.8267 12.3644 34.8798 12.9485 35.1016C16.5074 36.7636 20.5391 37.1152 24.3321 36.0944C28.125 35.0736 31.4356 32.746 33.6796 29.5222C35.9237 26.2984 36.957 22.3856 36.5973 18.4741C36.2376 14.5627 34.508 10.904 31.7136 8.14356C28.9192 5.3831 25.2396 3.69829 21.3241 3.38639C17.4086 3.07449 13.5087 4.15553 10.3125 6.43879C7.11639 8.72206 4.82935 12.0608 3.85496 15.866C2.88056 19.6711 3.28142 23.6982 4.9868 27.2366Z" stroke="#D18A8A" stroke-width="3.33333" stroke-linecap="round" stroke-linejoin="round"/>
</svg>
