<svg width="40" height="40" viewBox="0 0 40 40" fill="none" xmlns="http://www.w3.org/2000/svg">
<path d="M18.3614 4.68988C18.4328 4.30755 18.6357 3.96224 18.9349 3.71375C19.2341 3.46525 19.6108 3.32922 19.9998 3.32922C20.3887 3.32922 20.7654 3.46525 21.0646 3.71375C21.3638 3.96224 21.5667 4.30755 21.6381 4.68988L23.3898 13.9532C23.5142 14.6118 23.8342 15.2176 24.3081 15.6915C24.7821 16.1654 25.3878 16.4855 26.0464 16.6099L35.3098 18.3615C35.6921 18.433 36.0374 18.6358 36.2859 18.935C36.5344 19.2342 36.6704 19.6109 36.6704 19.9999C36.6704 20.3888 36.5344 20.7655 36.2859 21.0647C36.0374 21.3639 35.6921 21.5668 35.3098 21.6382L26.0464 23.3899C25.3878 23.5143 24.7821 23.8343 24.3081 24.3083C23.8342 24.7822 23.5142 25.388 23.3898 26.0465L21.6381 35.3099C21.5667 35.6922 21.3638 36.0375 21.0646 36.286C20.7654 36.5345 20.3887 36.6705 19.9998 36.6705C19.6108 36.6705 19.2341 36.5345 18.9349 36.286C18.6357 36.0375 18.4328 35.6922 18.3614 35.3099L16.6098 26.0465C16.4853 25.388 16.1653 24.7822 15.6914 24.3083C15.2175 23.8343 14.6117 23.5143 13.9531 23.3899L4.68976 21.6382C4.30743 21.5668 3.96212 21.3639 3.71362 21.0647C3.46513 20.7655 3.3291 20.3888 3.3291 19.9999C3.3291 19.6109 3.46513 19.2342 3.71362 18.935C3.96212 18.6358 4.30743 18.433 4.68976 18.3615L13.9531 16.6099C14.6117 16.4855 15.2175 16.1654 15.6914 15.6915C16.1653 15.2176 16.4853 14.6118 16.6098 13.9532L18.3614 4.68988Z" stroke="#D18A8A" stroke-width="3.33333" stroke-linecap="round" stroke-linejoin="round"/>
<path d="M33.333 3.33337V10" stroke="#D18A8A" stroke-width="3.33333" stroke-linecap="round" stroke-linejoin="round"/>
<path d="M36.6667 6.66663H30" stroke="#D18A8A" stroke-width="3.33333" stroke-linecap="round" stroke-linejoin="round"/>
<path d="M6.66634 36.6667C8.50729 36.6667 9.99967 35.1743 9.99967 33.3333C9.99967 31.4924 8.50729 30 6.66634 30C4.82539 30 3.33301 31.4924 3.33301 33.3333C3.33301 35.1743 4.82539 36.6667 6.66634 36.6667Z" stroke="#D18A8A" stroke-width="3.33333" stroke-linecap="round" stroke-linejoin="round"/>
</svg>
