<svg width="438" height="182" viewBox="0 0 438 182" fill="none" xmlns="http://www.w3.org/2000/svg">
<path d="M75.0322 165.693V164.413H82.7122V165.693H75.0322ZM81.8002 159.933H83.1602V171.133H81.8002V159.933ZM74.2802 159.933H75.6402V171.133H74.2802V159.933ZM89.9897 167.773L90.4697 166.493H95.4297L95.9097 167.773H89.9897ZM92.9177 162.461L91.0297 166.909L90.9017 167.197L89.2377 171.133H87.7177L92.9177 159.373L98.1177 171.133H96.5977L94.9657 167.293L94.8377 166.973L92.9177 162.461ZM111.16 159.933H112.52V171.693L104.04 162.797V171.133H102.68V159.373L111.16 168.269V159.933ZM118.286 159.933H119.646V171.133H118.286V159.933ZM121.646 171.133H119.038V169.773H121.646C122.276 169.773 122.852 169.677 123.374 169.485C123.897 169.283 124.345 169 124.718 168.637C125.092 168.264 125.38 167.816 125.582 167.293C125.785 166.771 125.886 166.184 125.886 165.533C125.886 164.883 125.785 164.296 125.582 163.773C125.38 163.251 125.092 162.808 124.718 162.445C124.345 162.072 123.897 161.789 123.374 161.597C122.852 161.395 122.276 161.293 121.646 161.293H119.038V159.933H121.646C122.734 159.933 123.7 160.168 124.542 160.637C125.385 161.107 126.046 161.763 126.526 162.605C127.006 163.437 127.246 164.413 127.246 165.533C127.246 166.653 127.006 167.635 126.526 168.477C126.046 169.309 125.385 169.96 124.542 170.429C123.7 170.899 122.734 171.133 121.646 171.133ZM133.161 165.533C133.161 166.397 133.353 167.16 133.737 167.821C134.132 168.483 134.644 169 135.273 169.373C135.903 169.747 136.585 169.933 137.321 169.933C137.855 169.933 138.34 169.864 138.777 169.725C139.225 169.587 139.631 169.395 139.993 169.149C140.356 168.893 140.665 168.6 140.921 168.269V170.061C140.452 170.477 139.94 170.787 139.385 170.989C138.831 171.192 138.143 171.293 137.321 171.293C136.543 171.293 135.812 171.155 135.129 170.877C134.457 170.589 133.865 170.189 133.353 169.677C132.841 169.155 132.441 168.541 132.153 167.837C131.865 167.133 131.721 166.365 131.721 165.533C131.721 164.701 131.865 163.933 132.153 163.229C132.441 162.525 132.841 161.917 133.353 161.405C133.865 160.883 134.457 160.483 135.129 160.205C135.812 159.917 136.543 159.773 137.321 159.773C138.143 159.773 138.831 159.875 139.385 160.077C139.94 160.28 140.452 160.589 140.921 161.005V162.797C140.665 162.467 140.356 162.179 139.993 161.933C139.631 161.677 139.225 161.48 138.777 161.341C138.34 161.203 137.855 161.133 137.321 161.133C136.585 161.133 135.903 161.32 135.273 161.693C134.644 162.067 134.132 162.584 133.737 163.245C133.353 163.896 133.161 164.659 133.161 165.533ZM148.515 165.613H150.035L154.035 171.133H152.355L148.515 165.613ZM146.515 159.933H147.875V171.133H146.515V159.933ZM147.267 161.133V159.933H149.555C150.28 159.933 150.925 160.072 151.491 160.349C152.067 160.616 152.52 161 152.851 161.501C153.192 162.003 153.363 162.6 153.363 163.293C153.363 163.976 153.192 164.573 152.851 165.085C152.52 165.587 152.067 165.976 151.491 166.253C150.925 166.52 150.28 166.653 149.555 166.653H147.267V165.453H149.555C150.035 165.453 150.456 165.368 150.819 165.197C151.192 165.027 151.48 164.781 151.683 164.461C151.896 164.141 152.003 163.752 152.003 163.293C152.003 162.835 151.896 162.445 151.683 162.125C151.48 161.805 151.192 161.56 150.819 161.389C150.456 161.219 150.035 161.133 149.555 161.133H147.267ZM159.74 167.773L160.22 166.493H165.18L165.66 167.773H159.74ZM162.668 162.461L160.78 166.909L160.652 167.197L158.988 171.133H157.468L162.668 159.373L167.868 171.133H166.348L164.716 167.293L164.588 166.973L162.668 162.461ZM173.182 161.213V159.933H178.19V161.213H173.182ZM173.182 165.693V164.413H178.03V165.693H173.182ZM172.43 159.933H173.79V171.133H172.43V159.933ZM182.026 161.213V159.933H189.146V161.213H186.266V171.133H184.906V161.213H182.026ZM194.535 171.133V169.853H200.183V171.133H194.535ZM194.535 161.213V159.933H200.183V161.213H194.535ZM194.535 165.693V164.413H199.863V165.693H194.535ZM193.783 159.933H195.143V171.133H193.783V159.933ZM205.78 159.933H207.14V171.133H205.78V159.933ZM209.14 171.133H206.532V169.773H209.14C209.77 169.773 210.346 169.677 210.868 169.485C211.391 169.283 211.839 169 212.212 168.637C212.586 168.264 212.874 167.816 213.076 167.293C213.279 166.771 213.38 166.184 213.38 165.533C213.38 164.883 213.279 164.296 213.076 163.773C212.874 163.251 212.586 162.808 212.212 162.445C211.839 162.072 211.391 161.789 210.868 161.597C210.346 161.395 209.77 161.293 209.14 161.293H206.532V159.933H209.14C210.228 159.933 211.194 160.168 212.036 160.637C212.879 161.107 213.54 161.763 214.02 162.605C214.5 163.437 214.74 164.413 214.74 165.533C214.74 166.653 214.5 167.635 214.02 168.477C213.54 169.309 212.879 169.96 212.036 170.429C211.194 170.899 210.228 171.133 209.14 171.133ZM228.604 171.133V169.853H234.252V171.133H228.604ZM228.604 161.213V159.933H234.252V161.213H228.604ZM228.604 165.693V164.413H233.932V165.693H228.604ZM227.852 159.933H229.212V171.133H227.852V159.933ZM245.449 159.933H247.049L243.737 165.261L247.289 171.133H245.689L243.049 166.445L240.329 171.133H238.729L242.377 165.261L239.129 159.933H240.729L243.065 164.077L245.449 159.933ZM251.927 165.533C251.927 166.397 252.119 167.16 252.503 167.821C252.898 168.483 253.41 169 254.039 169.373C254.668 169.747 255.351 169.933 256.087 169.933C256.62 169.933 257.106 169.864 257.543 169.725C257.991 169.587 258.396 169.395 258.759 169.149C259.122 168.893 259.431 168.6 259.687 168.269V170.061C259.218 170.477 258.706 170.787 258.151 170.989C257.596 171.192 256.908 171.293 256.087 171.293C255.308 171.293 254.578 171.155 253.895 170.877C253.223 170.589 252.631 170.189 252.119 169.677C251.607 169.155 251.207 168.541 250.919 167.837C250.631 167.133 250.487 166.365 250.487 165.533C250.487 164.701 250.631 163.933 250.919 163.229C251.207 162.525 251.607 161.917 252.119 161.405C252.631 160.883 253.223 160.483 253.895 160.205C254.578 159.917 255.308 159.773 256.087 159.773C256.908 159.773 257.596 159.875 258.151 160.077C258.706 160.28 259.218 160.589 259.687 161.005V162.797C259.431 162.467 259.122 162.179 258.759 161.933C258.396 161.677 257.991 161.48 257.543 161.341C257.106 161.203 256.62 161.133 256.087 161.133C255.351 161.133 254.668 161.32 254.039 161.693C253.41 162.067 252.898 162.584 252.503 163.245C252.119 163.896 251.927 164.659 251.927 165.533ZM266.032 171.133V169.853H271.68V171.133H266.032ZM266.032 161.213V159.933H271.68V161.213H266.032ZM266.032 165.693V164.413H271.36V165.693H266.032ZM265.28 159.933H266.64V171.133H265.28V159.933ZM277.277 159.933H278.637V169.853H283.037V171.133H277.277V159.933ZM287.68 159.933H289.04V169.853H293.44V171.133H287.68V159.933ZM298.835 171.133V169.853H304.483V171.133H298.835ZM298.835 161.213V159.933H304.483V161.213H298.835ZM298.835 165.693V164.413H304.163V165.693H298.835ZM298.083 159.933H299.443V171.133H298.083V159.933ZM318.56 159.933H319.92V171.693L311.44 162.797V171.133H310.08V159.373L318.56 168.269V159.933ZM326.486 165.533C326.486 166.397 326.678 167.16 327.062 167.821C327.457 168.483 327.969 169 328.598 169.373C329.228 169.747 329.91 169.933 330.646 169.933C331.18 169.933 331.665 169.864 332.102 169.725C332.55 169.587 332.956 169.395 333.318 169.149C333.681 168.893 333.99 168.6 334.246 168.269V170.061C333.777 170.477 333.265 170.787 332.71 170.989C332.156 171.192 331.468 171.293 330.646 171.293C329.868 171.293 329.137 171.155 328.454 170.877C327.782 170.589 327.19 170.189 326.678 169.677C326.166 169.155 325.766 168.541 325.478 167.837C325.19 167.133 325.046 166.365 325.046 165.533C325.046 164.701 325.19 163.933 325.478 163.229C325.766 162.525 326.166 161.917 326.678 161.405C327.19 160.883 327.782 160.483 328.454 160.205C329.137 159.917 329.868 159.773 330.646 159.773C331.468 159.773 332.156 159.875 332.71 160.077C333.265 160.28 333.777 160.589 334.246 161.005V162.797C333.99 162.467 333.681 162.179 333.318 161.933C332.956 161.677 332.55 161.48 332.102 161.341C331.665 161.203 331.18 161.133 330.646 161.133C329.91 161.133 329.228 161.32 328.598 161.693C327.969 162.067 327.457 162.584 327.062 163.245C326.678 163.896 326.486 164.659 326.486 165.533ZM340.592 171.133V169.853H346.24V171.133H340.592ZM340.592 161.213V159.933H346.24V161.213H340.592ZM340.592 165.693V164.413H345.92V165.693H340.592ZM339.84 159.933H341.2V171.133H339.84V159.933Z" fill="#CBB9B1"/>
<path d="M246.338 114.299C249.637 107.378 253.645 97.0085 259.411 91.8575C260.753 90.6591 262.229 90.0631 264.038 90.1684C265.556 90.2568 266.997 90.7891 268.02 91.9514C272.629 97.1885 268.778 121.045 268.288 128.643C268.112 131.371 267.281 138.679 269.164 140.728C269.487 141.079 269.931 141.312 270.407 141.32C271.222 141.333 272.084 140.79 272.777 140.406C279.626 136.616 285.39 127.482 289.929 121.173C291.674 118.748 293.796 116.22 295.205 113.596C296.425 111.326 296.796 108.679 297.541 106.232C299.393 100.154 303.241 94.0203 307.806 89.6064C310.747 86.7626 314.717 84.123 318.96 84.2074C321.873 84.2653 323.868 85.5869 325.81 87.6019C327.579 87.2186 331.139 86.7259 332.557 88.0637C333.3 89.3378 332.936 91.0154 332.592 92.3824C330.306 101.483 328.042 110.25 327.458 119.649C326.778 130.598 336.754 130.858 344.518 128.059C355.373 124.094 363.989 116.371 373.233 109.731C388.441 98.6491 405.467 87.1673 425.132 87.8004C429.2 87.9296 434.321 88.9088 437.159 92.008L435.611 94.6981C416.162 85.1414 394.158 101.224 378.735 112.174C365.572 121.52 352.066 135.663 334.38 133.783C325.675 132.858 320.595 126.974 319.437 118.568C318.735 114.021 319.168 112.03 319.705 107.637C316.741 113.184 312.956 120.398 306.965 123.171C302.268 125.345 299.041 123.285 297.069 118.878C291.147 126.397 278.866 147.427 268.024 145.85C265.805 145.508 263.814 144.297 262.491 142.484C256.549 134.419 261.261 115.849 262.012 106.386C262.231 103.627 262.423 100.194 262.837 97.4815C258.573 101.534 255.287 108.22 252.72 113.502C251.263 116.5 244.779 131.763 243.409 132.862C242.656 133.466 241.631 133.592 240.699 133.501C239.399 133.373 237.352 132.822 236.503 131.767C233.513 128.05 238.812 107.924 239.678 102.534C240.185 99.3786 240.227 96.2023 240.549 93.0294C229.631 102.253 223.682 124.306 218.473 137.148C218.068 138.148 217.19 139.221 216.25 139.768C215.322 140.318 214.21 140.467 213.17 140.18C209.355 139.138 210.4 134.652 210.814 131.722C212.352 120.863 214.398 109.693 217.273 99.1092C215.154 101.682 213.306 104.951 211.355 107.53C203.542 117.859 188.285 144.833 172.299 134.213C166.429 130.313 167.908 115.567 168.93 109.781C167.252 112.264 165.689 115.362 163.98 118.007C159.789 124.577 155.093 130.542 149.791 136.205C141.69 144.857 124.841 152.781 124.999 133.412C125.072 124.42 127.737 116.148 129.237 107.342C129.82 103.919 129.788 99.5364 129.807 95.9944C119.014 101.855 109.414 121.325 104.232 132.186C102.667 135.465 101.292 139.818 98.9817 142.367C98.2038 142.194 97.395 141.977 96.6424 141.711C95.8208 141.421 94.9724 140.853 94.5964 140.038C93.318 137.267 101.228 110.618 102.546 105.744C103.559 101.993 104.272 98.1343 105.575 94.4699C95.4341 103.177 84.8647 111.79 73.7286 119.363C54.781 132.221 31.6707 144.607 7.98349 140.399C5.91832 140.032 2.09258 139.417 2.73019 136.673C3.88014 135.272 6.3582 136.164 7.98435 136.577C14.6487 138.269 26.3524 136.823 32.8647 134.635C55.0089 127.195 74.7279 110.877 93.4719 97.2686C96.3283 95.1949 99.1365 92.9744 101.945 90.8521C104.276 89.0909 106.542 86.7007 109.097 85.3649C111.712 86.3144 113.884 87.3587 115.791 89.4148C114.84 94.775 112.135 102.521 110.489 107.939C115.091 102.908 119.906 93.4069 128.074 91.382C130.429 90.7807 132.926 91.1381 135.018 92.3759C147.42 99.8809 127.507 137.837 133.569 141.487C135.991 142.168 139.37 139.629 141.207 138.188C151.962 129.752 162.923 112.553 169.266 100.33C171.29 96.4305 172.83 92.1425 174.967 88.3484C175.444 87.503 176.107 86.5881 177.022 86.182C177.651 85.9022 178.359 85.9362 178.991 86.1848C180.269 86.6879 183.337 88.3066 183.801 89.6154C185.155 93.433 173.709 122.141 177.491 130.809C177.862 131.659 178.374 132.436 179.264 132.785C180.57 132.976 182.133 132.043 183.279 131.462C194.297 125.873 207.442 103.866 214.79 93.3989C217.058 90.1683 219.035 86.3996 222.34 84.1185C224.934 84.8313 226.62 85.6245 228.98 86.9193C228.51 90.9104 226.31 99.2761 225.459 103.421C224.994 105.315 224.402 107.498 224.026 109.386C225.033 108.051 225.528 106.901 226.241 105.401C228.615 100.887 236.056 85.8867 243.002 89.5661C244.872 90.5651 246.272 92.2632 246.895 94.29C248.045 98.1222 246.891 105.291 246.164 109.308C245.948 110.506 245.234 113.332 245.164 114.366C244.9 115.214 244.46 116.334 244.606 117.177C245.218 116.944 245.449 116.35 245.735 115.712C245.942 115.243 246.143 114.772 246.338 114.299ZM306.058 118.623C311.948 111.746 315.28 102.767 319.877 95.0396C320.425 94.1186 322.811 90.9306 322.817 90.1279C322.262 89.7122 322.485 89.8096 321.728 89.7905C314.014 90.8662 307.138 106.281 305.835 113.011C305.53 114.583 305.39 116.781 305.207 118.42L305.456 118.847L306.058 118.623Z" fill="#ED99AA"/>
<path d="M204.773 1H208.959C216.129 5.46156 215.924 10.4831 214.504 18.1261C211.115 36.3671 198.635 57.4587 185.446 70.2141C186.773 72.298 191.154 78.8944 189.305 81.0999C186.7 82.0823 183.145 75.5386 182.205 73.6844C178.484 78.2621 168.033 90.3919 161.718 92.2684C161.235 92.4116 160.448 91.921 160 91.63V90.0561C160.761 89.0076 166.614 84.3942 168.214 82.6914C172.329 78.3133 175.819 73.8861 179.612 69.2425C176.806 65.3278 174.813 59.637 173.343 55.053C170.387 45.8326 165.054 21.9524 169.612 13.1193C170.489 11.4194 171.852 9.87123 173.721 9.28053C175.829 8.61416 178.054 9.08822 179.97 10.0872C184.684 12.5454 188.031 16.943 189.614 21.9875C189.671 21.7999 189.731 21.6131 189.793 21.4272C192.816 12.4394 196.089 5.30859 204.773 1ZM175.165 40.1886C175.769 43.5105 180.413 63.4416 182.81 64.5996C183.554 64.4242 185.443 61.5096 185.99 60.7648C195.298 48.0811 204.576 33.9174 207.493 18.2104C207.923 15.9002 209.725 8.76381 206.97 7.61484C206.894 7.58332 206.817 7.55506 206.739 7.53014C201.857 9.52145 199.033 15.8671 197.08 20.5117C195.666 23.8678 194.492 27.3204 193.568 30.8432C192.825 33.6501 192.172 36.5557 191.237 39.2817C190.809 40.5307 188.573 41.6112 187.435 41.023C185.122 39.7539 185.258 35.7387 185.175 33.4858C184.965 27.8247 184.061 21.6955 179.817 17.5541C178.79 16.5512 177.173 14.9577 175.681 15.0234C172.33 16.678 174.497 36.529 175.165 40.1886Z" fill="#F099AA"/>
</svg>
