<svg width="435" height="145" viewBox="0 0 435 145" fill="none" xmlns="http://www.w3.org/2000/svg">
<path d="M243.679 113.299C246.978 106.378 250.986 96.0085 256.752 90.8575C258.094 89.6591 259.57 89.0631 261.379 89.1684C262.897 89.2568 264.338 89.7891 265.361 90.9514C269.97 96.1885 266.119 120.045 265.629 127.643C265.453 130.371 264.622 137.679 266.505 139.728C266.828 140.079 267.272 140.312 267.748 140.32C268.563 140.333 269.425 139.79 270.118 139.406C276.967 135.616 282.731 126.482 287.27 120.173C289.015 117.748 291.137 115.22 292.546 112.596C293.766 110.326 294.137 107.679 294.882 105.232C296.734 99.1538 300.582 93.0203 305.147 88.6064C308.088 85.7626 312.058 83.123 316.301 83.2074C319.214 83.2653 321.209 84.5869 323.151 86.6019C324.92 86.2186 328.48 85.7259 329.898 87.0637C330.641 88.3378 330.277 90.0154 329.933 91.3824C327.647 100.483 325.383 109.25 324.799 118.649C324.119 129.598 334.095 129.858 341.859 127.059C352.714 123.094 361.33 115.371 370.574 108.731C385.782 97.6491 402.808 86.1673 422.473 86.8004C426.541 86.9296 431.662 87.9088 434.5 91.008L432.952 93.6981C413.503 84.1414 391.499 100.224 376.076 111.174C362.913 120.52 349.407 134.663 331.721 132.783C323.016 131.858 317.936 125.974 316.778 117.568C316.076 113.021 316.509 111.03 317.046 106.637C314.082 112.184 310.297 119.398 304.306 122.171C299.609 124.345 296.382 122.285 294.41 117.878C288.488 125.397 276.207 146.427 265.365 144.85C263.146 144.508 261.155 143.297 259.832 141.484C253.89 133.419 258.602 114.849 259.353 105.386C259.572 102.627 259.764 99.1936 260.178 96.4815C255.914 100.534 252.628 107.22 250.061 112.502C248.604 115.5 242.12 130.763 240.75 131.862C239.997 132.466 238.972 132.592 238.04 132.501C236.74 132.373 234.693 131.822 233.844 130.767C230.854 127.05 236.153 106.924 237.019 101.534C237.526 98.3786 237.568 95.2023 237.89 92.0294C226.972 101.253 221.023 123.306 215.814 136.148C215.409 137.148 214.531 138.221 213.591 138.768C212.663 139.318 211.551 139.467 210.511 139.18C206.696 138.138 207.741 133.652 208.155 130.722C209.693 119.863 211.739 108.693 214.614 98.1092C212.495 100.682 210.647 103.951 208.696 106.53C200.883 116.859 185.626 143.833 169.64 133.213C163.77 129.313 165.249 114.567 166.271 108.781C164.593 111.264 163.03 114.362 161.321 117.007C157.13 123.577 152.434 129.542 147.132 135.205C139.031 143.857 122.182 151.781 122.34 132.412C122.413 123.42 125.078 115.148 126.578 106.342C127.161 102.919 127.129 98.5364 127.148 94.9944C116.355 100.855 106.755 120.325 101.573 131.186C100.008 134.465 98.6326 138.818 96.3223 141.367C95.5444 141.194 94.7356 140.977 93.983 140.711C93.1614 140.421 92.313 139.853 91.937 139.038C90.6586 136.267 98.5686 109.618 99.8866 104.744C100.9 100.993 101.613 97.1343 102.916 93.4699C92.7747 102.177 82.2053 110.79 71.0692 118.363C52.1216 131.221 29.0113 143.607 5.32407 139.399C3.2589 139.032 -0.566839 138.417 0.0707708 135.673C1.22072 134.272 3.69878 135.164 5.32493 135.577C11.9893 137.269 23.693 135.823 30.2053 133.635C52.3495 126.195 72.0685 109.877 90.8125 96.2686C93.6689 94.1949 96.4771 91.9744 99.2856 89.8521C101.617 88.0909 103.883 85.7007 106.438 84.3649C109.053 85.3144 111.225 86.3587 113.132 88.4148C112.181 93.775 109.476 101.521 107.83 106.939C112.432 101.908 117.247 92.4069 125.415 90.382C127.77 89.7807 130.267 90.1381 132.359 91.3759C144.761 98.8809 124.848 136.837 130.91 140.487C133.332 141.168 136.711 138.629 138.548 137.188C149.303 128.752 160.264 111.553 166.607 99.3303C168.631 95.4305 170.171 91.1425 172.308 87.3484C172.785 86.503 173.448 85.5881 174.363 85.182C174.992 84.9022 175.7 84.9362 176.332 85.1848C177.61 85.6879 180.678 87.3066 181.142 88.6154C182.496 92.433 171.05 121.141 174.832 129.809C175.203 130.659 175.715 131.436 176.605 131.785C177.911 131.976 179.474 131.043 180.62 130.462C191.638 124.873 204.783 102.866 212.131 92.3989C214.399 89.1683 216.376 85.3996 219.681 83.1185C222.275 83.8313 223.961 84.6245 226.321 85.9193C225.851 89.9104 223.651 98.2761 222.8 102.421C222.335 104.315 221.743 106.498 221.367 108.386C222.374 107.051 222.869 105.901 223.582 104.401C225.956 99.8867 233.397 84.8867 240.343 88.5661C242.213 89.5651 243.613 91.2632 244.236 93.29C245.386 97.1222 244.232 104.291 243.505 108.308C243.289 109.506 242.575 112.332 242.505 113.366C242.241 114.214 241.801 115.334 241.947 116.177C242.559 115.944 242.79 115.35 243.076 114.712C243.283 114.243 243.484 113.772 243.679 113.299ZM303.399 117.623C309.289 110.746 312.621 101.767 317.218 94.0396C317.766 93.1186 320.152 89.9306 320.158 89.1279C319.603 88.7122 319.826 88.8096 319.069 88.7905C311.355 89.8662 304.479 105.281 303.176 112.011C302.871 113.583 302.731 115.781 302.548 117.42L302.797 117.847L303.399 117.623Z" fill="#ED99AA"/>
<path d="M202.114 0H206.3C213.47 4.46156 213.264 9.48306 211.844 17.1261C208.456 35.3671 195.976 56.4587 182.786 69.2141C184.114 71.298 188.495 77.8944 186.646 80.0999C184.041 81.0823 180.486 74.5386 179.546 72.6844C175.825 77.2621 165.374 89.3919 159.058 91.2684C158.576 91.4116 157.789 90.921 157.341 90.63V89.0561C158.102 88.0076 163.954 83.3942 165.555 81.6914C169.67 77.3133 173.16 72.8861 176.953 68.2425C174.147 64.3278 172.154 58.637 170.684 54.053C167.728 44.8326 162.394 20.9524 166.952 12.1193C167.83 10.4194 169.193 8.87123 171.061 8.28053C173.169 7.61416 175.395 8.08822 177.31 9.08716C182.024 11.5454 185.372 15.943 186.954 20.9875C187.011 20.7999 187.071 20.6131 187.133 20.4272C190.157 11.4394 193.429 4.30859 202.114 0ZM172.506 39.1886C173.11 42.5105 177.754 62.4416 180.15 63.5996C180.894 63.4242 182.784 60.5096 183.331 59.7648C192.638 47.0811 201.916 32.9174 204.834 17.2104C205.263 14.9002 207.066 7.76381 204.311 6.61484C204.235 6.58332 204.158 6.55506 204.079 6.53014C199.197 8.52145 196.374 14.8671 194.421 19.5117C193.006 22.8678 191.833 26.3204 190.908 29.8432C190.166 32.6501 189.513 35.5557 188.578 38.2817C188.15 39.5307 185.913 40.6112 184.775 40.023C182.462 38.7539 182.599 34.7387 182.516 32.4858C182.306 26.8247 181.401 20.6955 177.158 16.5541C176.13 15.5512 174.513 13.9577 173.021 14.0234C169.671 15.678 171.837 35.529 172.506 39.1886Z" fill="#F099AA"/>
</svg>
