<svg width="138" height="46" viewBox="0 0 138 46" fill="none" xmlns="http://www.w3.org/2000/svg">
<path d="M77.3399 35.9594C78.387 33.7627 79.6591 30.4717 81.4891 28.8368C81.915 28.4565 82.3835 28.2673 82.9576 28.3007C83.4394 28.3288 83.8968 28.4977 84.2215 28.8666C85.6843 30.5288 84.4621 38.1004 84.3065 40.5121C84.2507 41.3778 83.9869 43.6974 84.5846 44.3474C84.6871 44.459 84.828 44.5329 84.9791 44.5354C85.2377 44.5397 85.5113 44.3672 85.7313 44.2455C87.9051 43.0424 89.7345 40.1434 91.1751 38.141C91.7289 37.3715 92.4024 36.5691 92.8496 35.7364C93.2368 35.0159 93.3545 34.1758 93.591 33.3989C94.1788 31.4699 95.4001 29.5233 96.849 28.1223C97.7824 27.2198 99.0424 26.382 100.389 26.4088C101.314 26.4272 101.947 26.8466 102.563 27.4862C103.125 27.3645 104.255 27.2081 104.705 27.6327C104.94 28.0371 104.825 28.5695 104.716 29.0034C103.99 31.8917 103.272 34.6745 103.086 37.6574C102.87 41.1323 106.037 41.215 108.501 40.3267C111.946 39.0682 114.681 36.6171 117.615 34.5095C122.441 30.9924 127.845 27.3482 134.086 27.5491C135.378 27.5902 137.003 27.9009 137.904 28.8846L137.412 29.7384C131.24 26.7052 124.256 31.8097 119.361 35.285C115.183 38.2512 110.896 42.74 105.283 42.1434C102.52 41.8497 100.908 39.9822 100.54 37.3142C100.318 35.8711 100.455 35.2391 100.626 33.8451C99.6848 35.6055 98.4835 37.895 96.582 38.7751C95.0913 39.4651 94.0671 38.8114 93.4412 37.4128C91.5616 39.799 87.6638 46.4736 84.2227 45.9733C83.5185 45.8648 82.8866 45.4804 82.4667 44.905C80.5807 42.3453 82.0763 36.4514 82.3146 33.4479C82.3841 32.5723 82.4451 31.4826 82.5765 30.6218C81.2231 31.9079 80.1802 34.03 79.3655 35.7065C78.9031 36.6579 76.8451 41.5023 76.4103 41.851C76.1713 42.0426 75.846 42.0829 75.5502 42.0538C75.1376 42.0131 74.4879 41.8382 74.2185 41.5036C73.2695 40.3237 74.9513 33.9362 75.2262 32.2253C75.3871 31.2239 75.4004 30.2158 75.5026 29.2088C72.0374 32.1362 70.1493 39.1356 68.496 43.2113C68.3675 43.5288 68.0888 43.8694 67.7905 44.043C67.4959 44.2176 67.143 44.2647 66.8129 44.1737C65.6021 43.843 65.9338 42.4193 66.0651 41.4892C66.5533 38.0426 67.2027 34.4975 68.1151 31.1384C67.4426 31.955 66.8561 32.9926 66.2369 33.8111C63.7571 37.0892 58.9148 45.6503 53.8411 42.2797C51.978 41.0421 52.4474 36.3619 52.7718 34.5255C52.2392 35.3136 51.7431 36.2968 51.2007 37.1363C49.8706 39.2214 48.3801 41.1146 46.6974 42.9121C44.1262 45.6582 38.7786 48.1729 38.8288 42.0256C38.8519 39.1715 39.6978 36.5462 40.1738 33.7513C40.3589 32.665 40.3487 31.274 40.3547 30.1498C36.9292 32.0099 33.8823 38.1894 32.2376 41.6366C31.7409 42.6771 31.3045 44.0586 30.5712 44.8679C30.3244 44.8127 30.0677 44.7438 29.8288 44.6596C29.568 44.5676 29.2988 44.3874 29.1794 44.1286C28.7737 43.249 31.2842 34.7912 31.7025 33.2442C32.024 32.0537 32.2503 30.829 32.6639 29.666C29.4453 32.4294 26.0907 35.1631 22.5563 37.5666C16.5426 41.6477 9.20774 45.5788 1.68978 44.2431C1.03433 44.1266 -0.179906 43.9316 0.0224616 43.0606C0.387439 42.6161 1.17394 42.8991 1.69005 43.0301C3.80521 43.5671 7.51979 43.1083 9.5867 42.4138C16.6149 40.0525 22.8735 34.8732 28.8225 30.5542C29.7291 29.8961 30.6204 29.1913 31.5118 28.5177C32.2516 27.9587 32.9708 27.2001 33.7817 26.7761C34.6117 27.0775 35.301 27.409 35.9063 28.0616C35.6044 29.7628 34.7459 32.2211 34.2235 33.9409C35.6841 32.3439 37.2123 29.3286 39.8047 28.6859C40.5522 28.495 41.3447 28.6085 42.0086 29.0014C45.9448 31.3833 39.6248 43.4301 41.5487 44.5886C42.3174 44.8045 43.3899 43.9988 43.9729 43.5414C47.3864 40.8641 50.8653 35.4053 52.8784 31.526C53.5208 30.2882 54.0096 28.9273 54.6878 27.7231C54.8392 27.4548 55.0497 27.1644 55.3401 27.0355C55.5397 26.9467 55.7644 26.9575 55.965 27.0364C56.3706 27.1961 57.3444 27.7098 57.4916 28.1252C57.9214 29.3369 54.2886 38.4485 55.4889 41.1995C55.6067 41.4691 55.7692 41.7158 56.0517 41.8265C56.4662 41.8871 56.9622 41.5911 57.326 41.4067C60.8229 39.6329 64.9949 32.648 67.3271 29.326C68.0469 28.3007 68.6744 27.1046 69.7233 26.3806C70.5466 26.6068 71.0817 26.8585 71.8308 27.2695C71.6816 28.5362 70.9834 31.1914 70.7133 32.507C70.5657 33.108 70.3778 33.8007 70.2584 34.4001C70.578 33.9764 70.7352 33.6113 70.9614 33.1355C71.7149 31.7026 74.0766 26.9418 76.2811 28.1096C76.8746 28.4266 77.319 28.9656 77.5167 29.6089C77.8817 30.8251 77.5155 33.1004 77.2847 34.3755C77.2162 34.7554 76.9895 35.6524 76.9673 35.9806C76.8835 36.2497 76.7439 36.6053 76.7902 36.8728C76.9845 36.7988 77.0578 36.6104 77.1486 36.4078C77.2143 36.2591 77.278 36.1096 77.3399 35.9594ZM96.2942 37.3317C98.1636 35.1491 99.2211 32.2993 100.68 29.8468C100.854 29.5545 101.611 28.5426 101.613 28.2879C101.437 28.1559 101.508 28.1868 101.268 28.1808C98.8193 28.5222 96.6369 33.4145 96.2234 35.5506C96.1266 36.0496 96.0822 36.7473 96.0241 37.2673L96.1031 37.4027L96.2942 37.3317Z" fill="#CBB9B1"/>
<path d="M64.1478 0H65.4765C67.7521 1.41603 67.6869 3.00978 67.2363 5.43557C66.1608 11.225 62.1997 17.9191 58.0136 21.9675C58.435 22.6289 59.8255 24.7225 59.2387 25.4225C58.4119 25.7343 57.2835 23.6574 56.9852 23.0689C55.8042 24.5218 52.4872 28.3717 50.4827 28.9672C50.3297 29.0127 50.0799 28.857 49.9375 28.7646V28.2651C50.1791 27.9323 52.0367 26.4681 52.5446 25.9276C53.8506 24.5381 54.9584 23.133 56.1621 21.6592C55.2717 20.4167 54.639 18.6105 54.1725 17.1556C53.2343 14.2292 51.5415 6.64998 52.9882 3.84648C53.2666 3.30696 53.6992 2.8156 54.2923 2.62812C54.9613 2.41662 55.6677 2.56708 56.2756 2.88413C57.7718 3.66434 58.8343 5.06007 59.3366 6.66112C59.3546 6.60158 59.3736 6.54229 59.3934 6.48329C60.3529 3.6307 61.3916 1.36748 64.1478 0ZM54.7508 12.4379C54.9425 13.4922 56.4164 19.818 57.1771 20.1856C57.4131 20.1299 58.0129 19.2048 58.1864 18.9685C61.1406 14.9428 64.0852 10.4475 65.0112 5.46232C65.1474 4.7291 65.7195 2.46412 64.8451 2.09945C64.8211 2.08945 64.7966 2.08048 64.7718 2.07257C63.2223 2.70458 62.3262 4.7186 61.7062 6.19272C61.2573 7.2579 60.8848 8.3537 60.5915 9.47179C60.3558 10.3627 60.1486 11.2848 59.8518 12.15C59.7159 12.5465 59.0061 12.8894 58.6449 12.7027C57.9107 12.2999 57.9542 11.0255 57.9277 10.3105C57.8611 8.51376 57.574 6.56844 56.2272 5.25402C55.9011 4.93572 55.388 4.42997 54.9144 4.45082C53.8509 4.97596 54.5386 11.2764 54.7508 12.4379Z" fill="#CBB9B1"/>
</svg>
